# xmcd
#
# Track frame offsets:
#  150
#  13427
#  24197
#  37387
#  48675
#  65675
#  83600
#  99792
#  113415
#  126145
#
# Disc length: 1856 seconds
#
# Revision: 0
# Processed by: cddbd v1.5.1PL2 Copyright (c) Steve Scherf et al.
# Submitted via: Collectorz.com_Music_Collector 6.11
#
DISCID=7d073e0a
DTITLE=Ferlin Husky - The Best Of
DYEAR=1991
DGENRE=
TTITLE0=Room Full Of Roses
TTITLE1=She Called Me Baby, Baby
TTITLE2=I'd Be A Legend In My Time
TTITLE3=San Antonio Rose
TTITLE4=For TheGood Times
TTITLE5=Sunday Mornin' Comin' Down
TTITLE6=You Needed Me
TTITLE7=Too Late To Worry
TTITLE8=I Can't Stop Loving You
TTITLE9=Behind Closed Doors
EXTD=
EXTT0=
EXTT1=
EXTT2=
EXTT3=
EXTT4=
EXTT5=
EXTT6=
EXTT7=
EXTT8=
EXTT9=
PLAYORDER=
